<svg height="492pt" viewBox="-49 0 492 492" width="492pt" xmlns="http://www.w3.org/2000/svg" xmlns:xlink="http://www.w3.org/1999/xlink"><linearGradient id="lg1"><stop offset=".322" stop-color="#a163f5"/><stop offset=".466" stop-color="#b074ee"/><stop offset=".752" stop-color="#d8a1dd"/><stop offset=".898" stop-color="#efbad3"/></linearGradient><linearGradient id="linear0" gradientUnits="userSpaceOnUse" x1="196.716" x2="196.716" xlink:href="#lg1" y1="474" y2="19.996"/><linearGradient id="linear1" gradientUnits="userSpaceOnUse" x1="201.714" x2="201.714" xlink:href="#lg1" y1="474" y2="19.996"/><linearGradient id="linear2" gradientUnits="userSpaceOnUse" x1="367.416" x2="367.416" xlink:href="#lg1" y1="474" y2="19.996"/><linearGradient id="linear3" gradientUnits="userSpaceOnUse" x1="26.012" x2="26.012" xlink:href="#lg1" y1="474" y2="19.996"/><linearGradient id="linear4" gradientUnits="userSpaceOnUse" x1="321.815" x2="321.815" xlink:href="#lg1" y1="474" y2="19.996"/><linearGradient id="linear5" gradientUnits="userSpaceOnUse" x1="71.613" x2="71.613" xlink:href="#lg1" y1="474" y2="19.996"/><linearGradient id="linear6" gradientUnits="userSpaceOnUse" x1="253.151" x2="253.152" xlink:href="#lg1" y1="474" y2="19.996"/><linearGradient id="linear7" gradientUnits="userSpaceOnUse" x1="231.602" x2="231.602" xlink:href="#lg1" y1="474" y2="19.996"/><linearGradient id="linear8" gradientUnits="userSpaceOnUse" x1="236.673" x2="236.673" xlink:href="#lg1" y1="474" y2="19.996"/><linearGradient id="linear9" gradientUnits="userSpaceOnUse" x1="248.518" x2="248.518" xlink:href="#lg1" y1="474" y2="19.996"/><linearGradient id="linear10" gradientUnits="userSpaceOnUse" x1="161.826" x2="161.826" xlink:href="#lg1" y1="474" y2="19.996"/><linearGradient id="linear11" gradientUnits="userSpaceOnUse" x1="156.755" x2="156.755" xlink:href="#lg1" y1="474" y2="19.996"/><linearGradient id="linear12" gradientUnits="userSpaceOnUse" x1="144.91" x2="144.91" xlink:href="#lg1" y1="474" y2="19.996"/><linearGradient id="linear13" gradientUnits="userSpaceOnUse" x1="140.277" x2="140.277" xlink:href="#lg1" y1="474" y2="19.996"/><path d="m295.851562 108.273438c-26.066406-25.777344-61.160156-40.371094-97.820312-40.671876-.441406-.007812-.886719-.007812-1.328125-.007812-58.332031.003906-110.683594 35.804688-131.851563 90.160156-21.167968 54.355469-6.8125 116.132813 36.152344 155.585938 18.378906 17.054687 28.785156 41.019531 28.710938 66.089844v67.644531c.019531 14.839843 12.027344 26.875 26.867187 26.925781h34.132813v12c0 3.3125 2.683594 6 6 6 3.3125 0 6-2.6875 6-6v-12h34.128906c14.839844-.050781 26.851562-12.085938 26.871094-26.925781v-67.746094c.179687-25.339844 10.84375-49.476563 29.457031-66.675781 28.265625-26.296875 44.539063-63.011719 45.046875-101.617188.503906-38.601562-14.804688-75.730468-42.367188-102.761718zm-59.007812 353.726562h-80.261719c-8.214843-.042969-14.855469-6.707031-14.867187-14.925781v-3.074219h72.183594c3.316406 0 6-2.6875 6-6s-2.683594-6-6-6h-72.183594v-18h17.980468c3.316407 0 6-2.6875 6-6s-2.683593-6-6-6h-17.980468v-17h110v17h-70.441406c-3.3125 0-6 2.6875-6 6s2.6875 6 6 6h70.441406v18h-16.238282c-3.3125 0-6 2.6875-6 6s2.6875 6 6 6h16.238282v3.074219c-.015625 8.21875-6.65625 14.882812-14.871094 14.925781zm48.136719-158.34375c-19.496094 18.03125-31.34375 42.847656-33.105469 69.34375h-110.320312c-1.550782-26.226562-13.164063-50.839844-32.421876-68.710938-39.304687-36.082031-52.429687-92.589843-33.058593-142.304687 19.375-49.714844 67.277343-82.441406 120.632812-82.414063.398438 0 .8125.015626 1.214844.019532 52.976563.4375 100.332031 33.128906 119.519531 82.511718 19.183594 49.378907 6.324219 105.46875-32.460937 141.554688zm0 0" fill="url(#linear0)"/><path d="m201.714844 52.023438c3.3125 0 6-2.6875 6-6v-40.023438c0-3.3125-2.6875-6-6-6-3.316406 0-6 2.6875-6 6v40.023438c0 3.3125 2.683594 6 6 6zm0 0" fill="url(#linear1)"/><path d="m387.429688 191h-40.027344c-3.3125 0-6 2.6875-6 6s2.6875 6 6 6h40.027344c3.3125 0 6-2.6875 6-6s-2.6875-6-6-6zm0 0" fill="url(#linear2)"/><path d="m46.023438 191h-40.023438c-3.3125 0-6 2.6875-6 6s2.6875 6 6 6h40.023438c3.3125 0 6-2.6875 6-6s-2.6875-6-6-6zm0 0" fill="url(#linear3)"/><path d="m306.199219 93.230469c1.589843 0 3.117187-.632813 4.242187-1.757813l31.230469-31.234375c2.3125-2.347656 2.296875-6.121093-.035156-8.449219-2.328125-2.328124-6.101563-2.34375-8.449219-.035156l-31.230469 31.230469c-1.71875 1.71875-2.230469 4.296875-1.300781 6.539063.925781 2.242187 3.117188 3.707031 5.542969 3.707031zm0 0" fill="url(#linear4)"/><path d="m82.984375 91.472656c2.34375 2.34375 6.144531 2.34375 8.488281 0s2.34375-6.144531 0-8.488281l-31.234375-31.230469c-2.347656-2.308594-6.121093-2.292968-8.449219.035156-2.328124 2.328126-2.34375 6.101563-.035156 8.449219zm0 0" fill="url(#linear5)"/><path d="m296.835938 202.871094c5.328124-5.925782 7.8125-13.882813 6.804687-21.789063-1.003906-7.910156-5.402344-14.988281-12.046875-19.390625-.640625-.425781-1.292969-.8125-1.960938-1.183594 2.53125-11.675781-.898437-23.847656-9.148437-32.492187-8.253906-8.640625-20.253906-12.625-32.035156-10.636719 0-.167968.015625-.335937.015625-.5 0-13.738281-11.136719-24.875-24.875-24.875-13.738282 0-24.875 11.136719-24.875 24.875v154.5c.046875 10.882813 6.265625 20.800782 16.042968 25.585938 9.777344 4.78125 21.421876 3.609375 30.046876-3.03125 3.878906 1.9375 8.160156 2.945312 12.5 2.945312 15.714843-.023437 28.4375-12.785156 28.410156-28.503906v-6.699219c11.046875-4.71875 19.015625-14.632812 21.246094-26.4375 2.234374-11.800781-1.566407-23.941406-10.125-32.367187zm-25.121094 49.753906c-3.316406 0-6 2.6875-6 6-.027344 1.578125.578125 3.101562 1.683594 4.226562 1.101562 1.128907 2.613281 1.765626 4.191406 1.773438.707031.015625 1.417968-.011719 2.125-.078125v3.828125c0 9.0625-7.347656 16.40625-16.40625 16.40625-9.0625 0-16.40625-7.34375-16.40625-16.40625 0-3.300781-2.675782-5.976562-5.976563-5.976562s-5.976562 2.675781-5.976562 5.976562c-.003907 6.390625 2.15625 12.597656 6.121093 17.609375-2.390624 1.234375-5.042968 1.882813-7.734374 1.890625-9.132813 0-16.554688-7.367188-16.621094-16.5v-154.5c0-7.09375 5.75-12.84375 12.84375-12.84375s12.84375 5.75 12.84375 12.84375c.003906 1.953125-.445313 3.882812-1.308594 5.636719-.691406.441406-1.351562.898437-2.015625 1.390625-2.667969 1.972656-3.230469 5.730468-1.257813 8.398437 1.972657 2.664063 5.730469 3.226563 8.398438 1.253907 9.148438-6.738282 21.765625-6.140626 30.234375 1.433593 8.472656 7.570313 10.476563 20.042969 4.800781 29.886719-.128906.226562-.242187.464844-.34375.707031-.878906-2.488281-3.285156-4.109375-5.921875-3.992187-2.636719.121094-4.886719 1.945312-5.542969 4.503906-1.054687 4.144531-.535156 8.53125 1.457032 12.316406-.265625.679688-.671875 1.292969-1.1875 1.804688-2.339844 2.324218-2.371094 6.097656-.066406 8.453125 2.304687 2.359375 6.078124 2.414062 8.453124.128906.746094-.726563 1.421876-1.519531 2.023438-2.367187.363281.070312.734375.109374 1.105469.109374 2.796875.003907 5.222656-1.925781 5.851562-4.648437.628907-2.722656-.707031-5.523437-3.21875-6.746094-1.875-.925781-3.027343-2.863281-2.945312-4.949219.804687 1.929688 2.554687 3.300782 4.621093 3.617188 2.0625.316406 4.144532-.46875 5.488282-2.070312 3.9375 2.640624 6.441406 6.945312 6.789062 11.671874.347656 4.726563-1.496094 9.351563-5.003906 12.542969-4.730469-2.199219-9.882812-3.335937-15.101562-3.332031-3.3125 0-6 2.6875-6 6s2.6875 6 6 6c13.257812 0 24 10.746094 24 24s-10.742188 24-24 24zm0 0" fill="url(#linear6)"/><path d="m236.660156 213.78125c.402344 1.214844.527344 2.5.359375 3.769531-.429687 3.285157 1.882813 6.296875 5.167969 6.730469 3.289062.429688 6.300781-1.882812 6.734375-5.167969 1.117187-8.539062-3.230469-16.867187-10.875-20.828125-.777344-2.652344-.210937-5.515625 1.515625-7.675781 2.074219-2.582031 1.660156-6.359375-.925781-8.433594-2.582031-2.074219-6.359375-1.660156-8.433594.925781-2.976563 3.699219-4.5625 8.324219-4.480469 13.070313-3.292968.445313-6.425781 1.699219-9.117187 3.648437-1.761719 1.242188-2.722657 3.335938-2.511719 5.484376.210938 2.148437 1.554688 4.015624 3.527344 4.898437 1.96875.878906 4.261718.628906 6-.648437 2.195312-1.578126 5.015625-2.019532 7.589844-1.183594 2.574218.835937 4.597656 2.84375 5.449218 5.410156zm0 0" fill="url(#linear7)"/><path d="m226.328125 154.890625c.933594.335937 1.894531.589844 2.871094.761719.054687.648437.144531 1.289062.269531 1.925781.347656 1.726563.957031 3.386719 1.804688 4.929687 1.597656 2.902344 5.246093 3.960938 8.148437 2.363282 2.902344-1.601563 3.960937-5.25 2.363281-8.152344-.816406-1.476562-.875-3.25-.167968-4.777344.707031-1.53125 2.101562-2.628906 3.753906-2.964844.777344-.160156 1.582031-.140624 2.351562.058594 2.078125.542969 4.289063-.070312 5.792969-1.605468 1.503906-1.53125 2.074219-3.753907 1.496094-5.820313-.582031-2.070313-2.222657-3.671875-4.304688-4.199219-6.8125-1.746094-14.003906.816406-18.171875 6.480469-1.535156.113281-3.042968-.457031-4.113281-1.558594-2.320313-2.367187-6.117187-2.410156-8.488281-.09375-2.367188 2.316407-2.410156 6.117188-.09375 8.484375 1.820312 1.863282 4.035156 3.289063 6.488281 4.167969zm0 0" fill="url(#linear8)"/><path d="m256.222656 233.660156c-2.199218 2.203125-3.945312 4.820313-5.128906 7.699219-3.65625 1.523437-7.832031 1.074219-11.078125-1.191406-2.71875-1.902344-6.457031-1.242188-8.359375 1.472656-1.898438 2.71875-1.238281 6.457031 1.476562 8.359375 3.964844 2.769531 8.6875 4.253906 13.523438 4.253906.984375-.003906 1.964844-.066406 2.9375-.191406.664062 4.15625 2.425781 8.058594 5.101562 11.304688 2.109376 2.558593 5.890626 2.921874 8.445313.8125 2.558594-2.109376 2.921875-5.890626.8125-8.445313-2.378906-2.890625-3.21875-6.75-2.253906-10.371094.027343-.089843.054687-.179687.078125-.269531.546875-1.867188 1.554687-3.566406 2.929687-4.941406 2.34375-2.339844 2.347657-6.140625.007813-8.484375-2.34375-2.34375-6.140625-2.347657-8.488282-.003907zm0 0" fill="url(#linear9)"/><path d="m176.824219 199.820312c-2.691407-1.949218-5.824219-3.203124-9.117188-3.648437.027344-1.628906-.140625-3.253906-.5-4.839844-.683593-3.011719-2.042969-5.824219-3.976562-8.230469-2.074219-2.585937-5.851563-3-8.4375-.925781-2.582031 2.074219-3 5.851563-.925781 8.433594 1.726562 2.160156 2.292968 5.023437 1.519531 7.675781-7.648438 3.960938-11.992188 12.289063-10.871094 20.828125.429687 3.285157 3.445313 5.597657 6.730469 5.167969 3.285156-.433594 5.601562-3.445312 5.167968-6.730469-.167968-1.269531-.042968-2.554687.363282-3.769531.851562-2.566406 2.875-4.578125 5.449218-5.410156 2.574219-.835938 5.394532-.394532 7.589844 1.183594 1.738282 1.277343 4.03125 1.527343 6 .648437 1.972656-.882813 3.320313-2.75 3.527344-4.898437.210938-2.148438-.75-4.242188-2.511719-5.484376zm0 0" fill="url(#linear10)"/><path d="m145.707031 149.035156c1.761719-.449218 3.628907.039063 4.949219 1.292969 1.316406 1.253906 1.898438 3.09375 1.539062 4.875-.105468.53125-.289062 1.042969-.550781 1.515625-1.597656 2.902344-.542969 6.550781 2.359375 8.152344 2.902344 1.597656 6.550782.539062 8.152344-2.363282.847656-1.542968 1.457031-3.203124 1.804688-4.929687.125-.636719.214843-1.277344.269531-1.925781.976562-.171875 1.9375-.425782 2.871093-.761719 2.449219-.878906 4.667969-2.304687 6.484376-4.167969 2.316406-2.367187 2.277343-6.167968-.09375-8.484375-2.367188-2.316406-6.167969-2.273437-8.484376.09375-1.074218 1.101563-2.582031 1.671875-4.113281 1.558594-4.171875-5.664063-11.359375-8.226563-18.171875-6.480469-2.082031.527344-3.726562 2.128906-4.304687 4.199219-.582031 2.066406-.011719 4.289063 1.496093 5.820313 1.503907 1.535156 3.710938 2.148437 5.792969 1.605468zm0 0" fill="url(#linear11)"/><path d="m153.414062 240.167969c-3.246093 2.265625-7.425781 2.714843-11.078124 1.191406-1.1875-2.878906-2.929688-5.496094-5.132813-7.699219-2.34375-2.339844-6.144531-2.339844-8.484375.007813-2.34375 2.34375-2.339844 6.140625.003906 8.484375 1.378906 1.375 2.386719 3.074218 2.933594 4.941406.023438.089844.046875.179688.074219.269531.964843 3.617188.125 7.476563-2.25 10.367188-2.109375 2.558593-1.746094 6.339843.808593 8.449219 2.558594 2.105468 6.339844 1.742187 8.449219-.8125 2.675781-3.25 4.433594-7.152344 5.097657-11.308594 2.234374.292968 4.496093.253906 6.71875-.109375 3.503906-.5625 6.839843-1.910157 9.746093-3.953125 2.714844-1.898438 3.375-5.640625 1.472657-8.355469-1.898438-2.714844-5.640626-3.375-8.355469-1.472656zm0 0" fill="url(#linear12)"/><path d="m169.839844 92.125c-13.675782.011719-24.769532 11.074219-24.8125 24.75 0 .167969-.019532.335938-.015625.5-1.992188-.332031-4.011719-.5-6.03125-.5-10.894531-.015625-21.207031 4.910156-28.042969 13.390625s-9.460938 19.601563-7.136719 30.242187c-.667969.371094-1.324219.757813-1.960937 1.183594-12.613282 8.398438-16.042969 25.421875-7.671875 38.050782.734375 1.101562 1.542969 2.144531 2.425781 3.128906-8.5625 8.425781-12.359375 20.566406-10.128906 32.371094 2.234375 11.804687 10.203125 21.71875 21.25 26.4375v6.699218c-.042969 15.707032 12.664062 28.472656 28.375 28.5 4.351562.003906 8.640625-1.003906 12.535156-2.945312 8.625 6.640625 20.269531 7.816406 30.046875 3.03125s15.996094-14.703125 16.042969-25.589844v-154.5c-.074219-13.6875-11.1875-24.746094-24.875-24.75zm12.875 179.25c-.039063 5.789062-3.089844 11.140625-8.050782 14.125-4.960937 2.980469-11.121093 3.164062-16.25.484375 3.957032-5.015625 6.101563-11.222656 6.085938-17.609375-.042969-3.289062-2.722656-5.933594-6.011719-5.933594-3.289062 0-5.96875 2.644532-6.011719 5.933594 0 9.046875-7.332031 16.378906-16.378906 16.378906s-16.378906-7.332031-16.378906-16.378906v-3.828125c.707031.066406 1.414062.09375 2.125.078125 1.582031-.003906 3.101562-.636719 4.214844-1.765625 1.117187-1.125 1.734375-2.648437 1.722656-4.234375-.015625-3.320312-2.710938-6.003906-6.03125-6-13.253906.007812-24.007812-10.734375-24.011719-23.988281-.007812-13.253907 10.734375-24.003907 23.988281-24.011719 3.3125 0 6-2.6875 5.996094-6.003906 0-3.3125-2.6875-5.996094-6.003906-5.996094-5.214844-.003906-10.367188 1.132812-15.097656 3.332031-3.507813-3.191406-5.355469-7.816406-5.007813-12.542969.347657-4.726562 2.851563-9.03125 6.789063-11.671874 1.34375 1.601562 3.425781 2.386718 5.492187 2.070312 2.0625-.316406 3.816407-1.6875 4.617188-3.617188.082031 2.085938-1.070313 4.023438-2.941407 4.949219-2.515624 1.222657-3.851562 4.023438-3.222656 6.746094s3.058594 4.652344 5.851563 4.648437c.371093-.003906.738281-.039062 1.101562-.109374.601563.847656 1.277344 1.640624 2.023438 2.367187 2.371093 2.316406 6.167969 2.273437 8.484375-.09375 2.316406-2.371094 2.273437-6.171875-.09375-8.488281-.519532-.511719-.921875-1.125-1.191406-1.804688 1.992187-3.785156 2.515624-8.171875 1.460937-12.316406-.65625-2.558594-2.90625-4.382812-5.542969-4.503906-2.640625-.117188-5.042968 1.503906-5.925781 3.992187-.097656-.242187-.214844-.480469-.34375-.707031-5.6875-9.84375-3.691406-22.328125 4.78125-29.90625 8.476563-7.574219 21.105469-8.167969 30.253906-1.414062 2.664063 1.96875 6.421875 1.402343 8.390625-1.261719 1.96875-2.664063 1.402344-6.421875-1.261718-8.390625-.664063-.492188-1.34375-.949219-2.03125-1.390625-.875-1.75-1.332032-3.679688-1.339844-5.636719.085937-7.046875 5.824218-12.714844 12.875-12.714844 7.046875 0 12.785156 5.667969 12.875 12.714844zm0 0" fill="url(#linear13)"/></svg>