<svg xmlns="http://www.w3.org/2000/svg" width="114.404" height="117.093" viewBox="0 0 114.404 117.093">
  <g id="intel_logo_white" data-name="intel logo white" transform="translate(-64.83 0.5)">
    <g id="Group_29" data-name="Group 29" transform="translate(65.33)">
      <g id="Group_2" data-name="Group 2" transform="translate(56.054)">
        <path id="Path_16" data-name="Path 16" d="M262.508,10.859V1.417a1.763,1.763,0,0,0-3.458,0v9.443a1.763,1.763,0,0,0,3.458,0Z" transform="translate(-259.05)" fill="#fff"/>
        <g id="Group_1" data-name="Group 1">
          <path id="Path_17" data-name="Path 17" d="M262.508,10.859V1.417a1.763,1.763,0,0,0-3.458,0v9.443a1.763,1.763,0,0,0,3.458,0Z" transform="translate(-259.05)" fill="rgba(0,0,0,0)" stroke="rgba(0,0,0,0)" stroke-width="1"/>
        </g>
      </g>
      <g id="Group_4" data-name="Group 4" transform="translate(98.41 45.001)">
        <path id="Path_18" data-name="Path 18" d="M418.7,198.181a1.444,1.444,0,1,0,0-2.831H407.157a1.444,1.444,0,1,0,0,2.831Z" transform="translate(-405.43 -195.35)" fill="#fff"/>
        <g id="Group_3" data-name="Group 3">
          <path id="Path_19" data-name="Path 19" d="M418.7,198.181a1.444,1.444,0,1,0,0-2.831H407.157a1.444,1.444,0,1,0,0,2.831Z" transform="translate(-405.43 -195.35)" fill="rgba(0,0,0,0)" stroke="rgba(0,0,0,0)" stroke-width="1"/>
        </g>
      </g>
      <g id="Group_6" data-name="Group 6" transform="translate(0 45.001)">
        <path id="Path_20" data-name="Path 20" d="M67.06,195.35a1.444,1.444,0,1,0,0,2.831H78.6a1.444,1.444,0,1,0,0-2.831Z" transform="translate(-65.33 -195.35)" fill="#fff"/>
        <g id="Group_5" data-name="Group 5">
          <path id="Path_21" data-name="Path 21" d="M67.06,195.35a1.444,1.444,0,1,0,0,2.831H78.6a1.444,1.444,0,1,0,0-2.831Z" transform="translate(-65.33 -195.35)" fill="rgba(0,0,0,0)" stroke="rgba(0,0,0,0)" stroke-width="1"/>
        </g>
      </g>
      <g id="Group_8" data-name="Group 8" transform="translate(86.533 11.797)">
        <path id="Path_22" data-name="Path 22" d="M373.89,51.625l-9,7.369a1.246,1.246,0,0,0,0,2,2.009,2.009,0,0,0,2.445,0l9-7.372a1.24,1.24,0,0,0,0-2A2.01,2.01,0,0,0,373.89,51.625Z" transform="translate(-364.383 -51.21)" fill="#fff"/>
        <g id="Group_7" data-name="Group 7">
          <path id="Path_23" data-name="Path 23" d="M373.89,51.625l-9,7.369a1.246,1.246,0,0,0,0,2,2.009,2.009,0,0,0,2.445,0l9-7.372a1.24,1.24,0,0,0,0-2A2.01,2.01,0,0,0,373.89,51.625Z" transform="translate(-364.383 -51.21)" fill="rgba(0,0,0,0)" stroke="rgba(0,0,0,0)" stroke-width="1"/>
        </g>
      </g>
      <g id="Group_10" data-name="Group 10" transform="translate(14.422 11.806)">
        <path id="Path_24" data-name="Path 24" d="M127.493,60.567a1.234,1.234,0,0,0-.376-1.543l-9-7.369a2.013,2.013,0,0,0-2.436.009,1.241,1.241,0,0,0-.009,1.993l9,7.372a1.944,1.944,0,0,0,1.224.415A1.768,1.768,0,0,0,127.493,60.567Z" transform="translate(-115.172 -51.249)" fill="#fff"/>
        <g id="Group_9" data-name="Group 9">
          <path id="Path_25" data-name="Path 25" d="M127.493,60.567a1.234,1.234,0,0,0-.376-1.543l-9-7.369a2.013,2.013,0,0,0-2.436.009,1.241,1.241,0,0,0-.009,1.993l9,7.372a1.944,1.944,0,0,0,1.224.415A1.768,1.768,0,0,0,127.493,60.567Z" transform="translate(-115.172 -51.249)" fill="rgba(0,0,0,0)" stroke="rgba(0,0,0,0)" stroke-width="1"/>
        </g>
      </g>
      <g id="Group_12" data-name="Group 12" transform="translate(15.91 15.95)">
        <path id="Path_26" data-name="Path 26" d="M162.838,167.966v-2.847h9.838c4.271,0,7.734-2.838,7.737-6.337V142.8c.055-5.98,3.128-11.675,8.5-15.734,12.193-9.318,16.23-23.776,10.194-36.506S178.171,69.385,161.486,69.24H161.1c-16.814,0-31.907,8.447-38.007,21.274s-1.962,27.4,10.425,36.713c5.3,4.024,8.3,9.678,8.278,15.593v15.962c.006,3.5,3.466,6.333,7.737,6.337h9.841v2.847a1.763,1.763,0,0,0,3.458,0ZM126.324,91.544c5.582-11.739,19.393-19.47,34.783-19.47h.35c15.275.117,28.921,7.842,34.451,19.5s1.82,24.9-9.358,33.419c-5.631,4.269-9.045,10.143-9.543,16.413h-31.8c-.422-6.208-3.77-12.039-9.343-16.264C124.527,116.623,120.739,103.281,126.324,91.544Zm18.935,66.54h20.8a1.444,1.444,0,1,0,0-2.831h-20.8v-4.2h5.179a1.444,1.444,0,1,0,0-2.831h-5.179v-3.981h31.7v3.981h-20.3a1.444,1.444,0,1,0,0,2.831h20.3v4.2h-4.673a1.444,1.444,0,1,0,0,2.831h4.673v.7c0,1.935-1.916,3.5-4.28,3.5H149.539c-2.361,0-4.274-1.569-4.28-3.5Z" transform="translate(-120.316 -69.24)" fill="#fff"/>
        <g id="Group_11" data-name="Group 11">
          <path id="Path_27" data-name="Path 27" d="M162.838,167.966v-2.847h9.838c4.271,0,7.734-2.838,7.737-6.337V142.8c.055-5.98,3.128-11.675,8.5-15.734,12.193-9.318,16.23-23.776,10.194-36.506S178.171,69.385,161.486,69.24H161.1c-16.814,0-31.907,8.447-38.007,21.274s-1.962,27.4,10.425,36.713c5.3,4.024,8.3,9.678,8.278,15.593v15.962c.006,3.5,3.466,6.333,7.737,6.337h9.841v2.847a1.763,1.763,0,0,0,3.458,0ZM126.324,91.544c5.582-11.739,19.393-19.47,34.783-19.47h.35c15.275.117,28.921,7.842,34.451,19.5s1.82,24.9-9.358,33.419c-5.631,4.269-9.045,10.143-9.543,16.413h-31.8c-.422-6.208-3.77-12.039-9.343-16.264C124.527,116.623,120.739,103.281,126.324,91.544Zm18.935,66.54h20.8a1.444,1.444,0,1,0,0-2.831h-20.8v-4.2h5.179a1.444,1.444,0,1,0,0-2.831h-5.179v-3.981h31.7v3.981h-20.3a1.444,1.444,0,1,0,0,2.831h20.3v4.2h-4.673a1.444,1.444,0,1,0,0,2.831h4.673v.7c0,1.935-1.916,3.5-4.28,3.5H149.539c-2.361,0-4.274-1.569-4.28-3.5Z" transform="translate(-120.316 -69.24)" fill="rgba(0,0,0,0)" stroke="rgba(0,0,0,0)" stroke-width="1"/>
        </g>
      </g>
      <g id="Group_14" data-name="Group 14" transform="translate(61.703 42.674)">
        <path id="Path_28" data-name="Path 28" d="M284.011,191.928a1.916,1.916,0,0,1,1.178,1.981,1.5,1.5,0,0,0,1.49,1.587,1.7,1.7,0,0,0,1.939-1.219,4.673,4.673,0,0,0-3.134-4.916,1.727,1.727,0,0,1,.437-1.811,1.252,1.252,0,0,0-.266-1.99,2,2,0,0,0-2.431.219,4.27,4.27,0,0,0-1.293,3.085,6.586,6.586,0,0,0-2.627.862,1.326,1.326,0,0,0-.723,1.295,1.468,1.468,0,0,0,1.016,1.154,2.056,2.056,0,0,0,1.73-.152A2.9,2.9,0,0,1,284.011,191.928Z" transform="translate(-278.571 -185.249)" fill="#fff"/>
        <g id="Group_13" data-name="Group 13">
          <path id="Path_29" data-name="Path 29" d="M284.011,191.928a1.916,1.916,0,0,1,1.178,1.981,1.5,1.5,0,0,0,1.49,1.587,1.7,1.7,0,0,0,1.939-1.219,4.673,4.673,0,0,0-3.134-4.916,1.727,1.727,0,0,1,.437-1.811,1.252,1.252,0,0,0-.266-1.99,2,2,0,0,0-2.431.219,4.27,4.27,0,0,0-1.293,3.085,6.586,6.586,0,0,0-2.627.862,1.326,1.326,0,0,0-.723,1.295,1.468,1.468,0,0,0,1.016,1.154,2.056,2.056,0,0,0,1.73-.152A2.9,2.9,0,0,1,284.011,191.928Z" transform="translate(-278.571 -185.249)" fill="rgba(0,0,0,0)" stroke="rgba(0,0,0,0)" stroke-width="1"/>
        </g>
      </g>
      <g id="Group_16" data-name="Group 16" transform="translate(62.875 32.296)">
        <path id="Path_30" data-name="Path 30" d="M285.814,144.629a4.041,4.041,0,0,0,.078.454,3.64,3.64,0,0,0,.521,1.163,1.943,1.943,0,0,0,2.35.557,1.294,1.294,0,0,0,.68-1.924,1.055,1.055,0,0,1-.049-1.129,1.516,1.516,0,0,1,1.082-.7,1.777,1.777,0,0,1,.68.014,1.993,1.993,0,0,0,1.67-.38,1.251,1.251,0,0,0,.431-1.373,1.619,1.619,0,0,0-1.241-.991,5.593,5.593,0,0,0-5.237,1.53,1.7,1.7,0,0,1-1.186-.369,2.014,2.014,0,0,0-2.448-.021,1.242,1.242,0,0,0-.026,2,5.2,5.2,0,0,0,1.869.984A6.22,6.22,0,0,0,285.814,144.629Z" transform="translate(-282.623 -140.195)" fill="#fff"/>
        <g id="Group_15" data-name="Group 15">
          <path id="Path_31" data-name="Path 31" d="M285.814,144.629a4.041,4.041,0,0,0,.078.454,3.64,3.64,0,0,0,.521,1.163,1.943,1.943,0,0,0,2.35.557,1.294,1.294,0,0,0,.68-1.924,1.055,1.055,0,0,1-.049-1.129,1.516,1.516,0,0,1,1.082-.7,1.777,1.777,0,0,1,.68.014,1.993,1.993,0,0,0,1.67-.38,1.251,1.251,0,0,0,.431-1.373,1.619,1.619,0,0,0-1.241-.991,5.593,5.593,0,0,0-5.237,1.53,1.7,1.7,0,0,1-1.186-.369,2.014,2.014,0,0,0-2.448-.021,1.242,1.242,0,0,0-.026,2,5.2,5.2,0,0,0,1.869.984A6.22,6.22,0,0,0,285.814,144.629Z" transform="translate(-282.623 -140.195)" fill="rgba(0,0,0,0)" stroke="rgba(0,0,0,0)" stroke-width="1"/>
        </g>
      </g>
      <g id="Group_18" data-name="Group 18" transform="translate(66.462 54.721)">
        <path id="Path_32" data-name="Path 32" d="M297.742,239.493a1.985,1.985,0,0,0-2.41.348,1.264,1.264,0,0,0,.425,1.974,7.914,7.914,0,0,0,3.9,1,8,8,0,0,0,.848-.044,5.179,5.179,0,0,0,1.47,2.668,2,2,0,0,0,2.433.191,1.248,1.248,0,0,0,.234-1.993,2.37,2.37,0,0,1-.648-2.446c.009-.023.014-.044.023-.064a2.677,2.677,0,0,1,.842-1.166,1.242,1.242,0,0,0,0-2,2.01,2.01,0,0,0-2.445,0,5.655,5.655,0,0,0-1.479,1.818,4.037,4.037,0,0,1-1.817.175A3.766,3.766,0,0,1,297.742,239.493Z" transform="translate(-295.019 -237.545)" fill="#fff"/>
        <g id="Group_17" data-name="Group 17">
          <path id="Path_33" data-name="Path 33" d="M297.742,239.493a1.985,1.985,0,0,0-2.41.348,1.264,1.264,0,0,0,.425,1.974,7.914,7.914,0,0,0,3.9,1,8,8,0,0,0,.848-.044,5.179,5.179,0,0,0,1.47,2.668,2,2,0,0,0,2.433.191,1.248,1.248,0,0,0,.234-1.993,2.37,2.37,0,0,1-.648-2.446c.009-.023.014-.044.023-.064a2.677,2.677,0,0,1,.842-1.166,1.242,1.242,0,0,0,0-2,2.01,2.01,0,0,0-2.445,0,5.655,5.655,0,0,0-1.479,1.818,4.037,4.037,0,0,1-1.817.175A3.766,3.766,0,0,1,297.742,239.493Z" transform="translate(-295.019 -237.545)" fill="rgba(0,0,0,0)" stroke="rgba(0,0,0,0)" stroke-width="1"/>
        </g>
      </g>
      <g id="Group_20" data-name="Group 20" transform="translate(57.35 21.737)">
        <path id="Path_34" data-name="Path 34" d="M276.762,141.978a9.807,9.807,0,0,0,7.972-.318,6.559,6.559,0,0,0,3.874-5.711v-1.58a9.046,9.046,0,0,0,6.1-6.254,7.581,7.581,0,0,0-2.963-7.623,5.738,5.738,0,0,0,1.962-5.142,6.451,6.451,0,0,0-3.472-4.575c-.185-.1-.373-.191-.567-.279a7.491,7.491,0,0,0-2.636-7.666,11.842,11.842,0,0,0-9.233-2.511c0-.039,0-.081,0-.117,0-3.227-3.192-5.842-7.133-5.842s-7.136,2.615-7.136,5.842v36.455c.006,3.711,3.681,6.72,8.218,6.724A9.425,9.425,0,0,0,276.762,141.978ZM266.991,100.2a3.08,3.08,0,0,1,2.338-2.815,4.258,4.258,0,0,1,4.051.772,2.6,2.6,0,0,1,.576,3.373c-.2.1-.4.212-.587.327a1.256,1.256,0,0,0-.362,1.981,1.987,1.987,0,0,0,2.416.3,8.131,8.131,0,0,1,8.715.339,4.961,4.961,0,0,1,1.383,7.051,1.292,1.292,0,0,0-.1.168,1.761,1.761,0,0,0-1.707-.942,1.684,1.684,0,0,0-1.6,1.062,3.423,3.423,0,0,0,.42,2.907,1.3,1.3,0,0,1-.341.426,1.239,1.239,0,0,0-.02,1.993,2.01,2.01,0,0,0,2.436.032,4.559,4.559,0,0,0,.585-.56,2.088,2.088,0,0,0,.318.025,1.694,1.694,0,0,0,1.687-1.1,1.358,1.358,0,0,0-.929-1.592,1.233,1.233,0,0,1-.848-1.168,1.707,1.707,0,0,0,1.331.855,1.95,1.95,0,0,0,1.583-.488A3.577,3.577,0,0,1,290.3,115.9a3.335,3.335,0,0,1-1.441,2.96,12.255,12.255,0,0,0-4.355-.786,1.444,1.444,0,1,0,0,2.831c3.822,0,6.918,2.536,6.918,5.662s-3.1,5.665-6.918,5.665a1.444,1.444,0,1,0,0,2.831c.22,0,.434-.007.648-.018v.9c0,2.149-2.13,3.893-4.754,3.893s-4.757-1.744-4.757-3.893a1.763,1.763,0,0,0-3.458,0,5.97,5.97,0,0,0,1.762,4.156,5.676,5.676,0,0,1-4.667-.117,3.8,3.8,0,0,1-2.286-3.331C266.991,129.366,266.991,107.493,266.991,100.2Z" transform="translate(-263.53 -94.36)" fill="#fff"/>
        <g id="Group_19" data-name="Group 19">
          <path id="Path_35" data-name="Path 35" d="M276.762,141.978a9.807,9.807,0,0,0,7.972-.318,6.559,6.559,0,0,0,3.874-5.711v-1.58a9.046,9.046,0,0,0,6.1-6.254,7.581,7.581,0,0,0-2.963-7.623,5.738,5.738,0,0,0,1.962-5.142,6.451,6.451,0,0,0-3.472-4.575c-.185-.1-.373-.191-.567-.279a7.491,7.491,0,0,0-2.636-7.666,11.842,11.842,0,0,0-9.233-2.511c0-.039,0-.081,0-.117,0-3.227-3.192-5.842-7.133-5.842s-7.136,2.615-7.136,5.842v36.455c.006,3.711,3.681,6.72,8.218,6.724A9.425,9.425,0,0,0,276.762,141.978ZM266.991,100.2a3.08,3.08,0,0,1,2.338-2.815,4.258,4.258,0,0,1,4.051.772,2.6,2.6,0,0,1,.576,3.373c-.2.1-.4.212-.587.327a1.256,1.256,0,0,0-.362,1.981,1.987,1.987,0,0,0,2.416.3,8.131,8.131,0,0,1,8.715.339,4.961,4.961,0,0,1,1.383,7.051,1.292,1.292,0,0,0-.1.168,1.761,1.761,0,0,0-1.707-.942,1.684,1.684,0,0,0-1.6,1.062,3.423,3.423,0,0,0,.42,2.907,1.3,1.3,0,0,1-.341.426,1.239,1.239,0,0,0-.02,1.993,2.01,2.01,0,0,0,2.436.032,4.559,4.559,0,0,0,.585-.56,2.088,2.088,0,0,0,.318.025,1.694,1.694,0,0,0,1.687-1.1,1.358,1.358,0,0,0-.929-1.592,1.233,1.233,0,0,1-.848-1.168,1.707,1.707,0,0,0,1.331.855,1.95,1.95,0,0,0,1.583-.488A3.577,3.577,0,0,1,290.3,115.9a3.335,3.335,0,0,1-1.441,2.96,12.255,12.255,0,0,0-4.355-.786,1.444,1.444,0,1,0,0,2.831c3.822,0,6.918,2.536,6.918,5.662s-3.1,5.665-6.918,5.665a1.444,1.444,0,1,0,0,2.831c.22,0,.434-.007.648-.018v.9c0,2.149-2.13,3.893-4.754,3.893s-4.757-1.744-4.757-3.893a1.763,1.763,0,0,0-3.458,0,5.97,5.97,0,0,0,1.762,4.156,5.676,5.676,0,0,1-4.667-.117,3.8,3.8,0,0,1-2.286-3.331C266.991,129.366,266.991,107.493,266.991,100.2Z" transform="translate(-263.53 -94.36)" fill="rgba(0,0,0,0)" stroke="rgba(0,0,0,0)" stroke-width="1"/>
        </g>
      </g>
      <g id="Group_22" data-name="Group 22" transform="translate(24.707 21.737)">
        <path id="Path_36" data-name="Path 36" d="M177.473,142.692c2.81-1.131,4.592-3.472,4.589-6.036V100.2c0-3.225-3.194-5.842-7.136-5.842s-7.133,2.617-7.133,5.842c0,.039,0,.078,0,.117a12.792,12.792,0,0,0-1.733-.117,11.359,11.359,0,0,0-8.082,3.158,7.36,7.36,0,0,0-2.054,7.137c-.191.088-.382.18-.564.279a6.456,6.456,0,0,0-3.475,4.575,5.733,5.733,0,0,0,1.965,5.142,7.58,7.58,0,0,0-2.966,7.625,9.049,9.049,0,0,0,6.1,6.252v1.58a6.56,6.56,0,0,0,3.877,5.713,9.816,9.816,0,0,0,7.972.318A9.733,9.733,0,0,0,177.473,142.692Zm-17.029-7.646c.214.012.431.018.648.018a1.444,1.444,0,1,0,0-2.831c-3.822,0-6.918-2.536-6.918-5.665s3.1-5.662,6.918-5.662a1.444,1.444,0,1,0,0-2.831,12.228,12.228,0,0,0-4.352.786,3.331,3.331,0,0,1-1.444-2.96,3.574,3.574,0,0,1,1.959-2.753,1.937,1.937,0,0,0,1.58.488,1.707,1.707,0,0,0,1.331-.855,1.237,1.237,0,0,1-.848,1.168,1.358,1.358,0,0,0-.929,1.592,1.7,1.7,0,0,0,1.69,1.1,2.08,2.08,0,0,0,.315-.025,4.532,4.532,0,0,0,.582.56,2.014,2.014,0,0,0,2.448-.023,1.242,1.242,0,0,0-.026-2,1.274,1.274,0,0,1-.344-.426,3.424,3.424,0,0,0,.422-2.907,1.687,1.687,0,0,0-1.6-1.062,1.765,1.765,0,0,0-1.71.942,1.029,1.029,0,0,0-.1-.168,4.963,4.963,0,0,1,1.377-7.056,8.132,8.132,0,0,1,8.721-.334,1.99,1.99,0,0,0,2.419-.3,1.258,1.258,0,0,0-.365-1.981c-.191-.115-.385-.223-.585-.327a2.6,2.6,0,0,1,.585-3.363,4.253,4.253,0,0,1,4.039-.772A3.088,3.088,0,0,1,178.6,100.2v36.455a3.8,3.8,0,0,1-2.286,3.331,5.676,5.676,0,0,1-4.667.117,5.986,5.986,0,0,0,1.765-4.156,1.765,1.765,0,0,0-3.461,0c0,2.149-2.13,3.893-4.754,3.893s-4.757-1.744-4.757-3.893Z" transform="translate(-150.715 -94.36)" fill="#fff"/>
        <g id="Group_21" data-name="Group 21">
          <path id="Path_37" data-name="Path 37" d="M177.473,142.692c2.81-1.131,4.592-3.472,4.589-6.036V100.2c0-3.225-3.194-5.842-7.136-5.842s-7.133,2.617-7.133,5.842c0,.039,0,.078,0,.117a12.792,12.792,0,0,0-1.733-.117,11.359,11.359,0,0,0-8.082,3.158,7.36,7.36,0,0,0-2.054,7.137c-.191.088-.382.18-.564.279a6.456,6.456,0,0,0-3.475,4.575,5.733,5.733,0,0,0,1.965,5.142,7.58,7.58,0,0,0-2.966,7.625,9.049,9.049,0,0,0,6.1,6.252v1.58a6.56,6.56,0,0,0,3.877,5.713,9.816,9.816,0,0,0,7.972.318A9.733,9.733,0,0,0,177.473,142.692Zm-17.029-7.646c.214.012.431.018.648.018a1.444,1.444,0,1,0,0-2.831c-3.822,0-6.918-2.536-6.918-5.665s3.1-5.662,6.918-5.662a1.444,1.444,0,1,0,0-2.831,12.228,12.228,0,0,0-4.352.786,3.331,3.331,0,0,1-1.444-2.96,3.574,3.574,0,0,1,1.959-2.753,1.937,1.937,0,0,0,1.58.488,1.707,1.707,0,0,0,1.331-.855,1.237,1.237,0,0,1-.848,1.168,1.358,1.358,0,0,0-.929,1.592,1.7,1.7,0,0,0,1.69,1.1,2.08,2.08,0,0,0,.315-.025,4.532,4.532,0,0,0,.582.56,2.014,2.014,0,0,0,2.448-.023,1.242,1.242,0,0,0-.026-2,1.274,1.274,0,0,1-.344-.426,3.424,3.424,0,0,0,.422-2.907,1.687,1.687,0,0,0-1.6-1.062,1.765,1.765,0,0,0-1.71.942,1.029,1.029,0,0,0-.1-.168,4.963,4.963,0,0,1,1.377-7.056,8.132,8.132,0,0,1,8.721-.334,1.99,1.99,0,0,0,2.419-.3,1.258,1.258,0,0,0-.365-1.981c-.191-.115-.385-.223-.585-.327a2.6,2.6,0,0,1,.585-3.363,4.253,4.253,0,0,1,4.039-.772A3.088,3.088,0,0,1,178.6,100.2v36.455a3.8,3.8,0,0,1-2.286,3.331,5.676,5.676,0,0,1-4.667.117,5.986,5.986,0,0,0,1.765-4.156,1.765,1.765,0,0,0-3.461,0c0,2.149-2.13,3.893-4.754,3.893s-4.757-1.744-4.757-3.893Z" transform="translate(-150.715 -94.36)" fill="rgba(0,0,0,0)" stroke="rgba(0,0,0,0)" stroke-width="1"/>
        </g>
      </g>
      <g id="Group_24" data-name="Group 24" transform="translate(41.606 42.674)">
        <path id="Path_38" data-name="Path 38" d="M215.71,187.721a4.524,4.524,0,0,0-1.146-1.942,2,2,0,0,0-2.434-.219,1.25,1.25,0,0,0-.266,1.99,1.727,1.727,0,0,1,.437,1.811,4.677,4.677,0,0,0-3.134,4.916,1.7,1.7,0,0,0,1.942,1.219,1.5,1.5,0,0,0,1.49-1.587,1.619,1.619,0,0,1,.1-.889,2.275,2.275,0,0,1,1.571-1.276,2.9,2.9,0,0,1,2.188.279,2.056,2.056,0,0,0,1.73.152,1.468,1.468,0,0,0,1.016-1.154,1.331,1.331,0,0,0-.723-1.295,6.6,6.6,0,0,0-2.63-.862A4.03,4.03,0,0,0,215.71,187.721Z" transform="translate(-209.117 -185.249)" fill="#fff"/>
        <g id="Group_23" data-name="Group 23">
          <path id="Path_39" data-name="Path 39" d="M215.71,187.721a4.524,4.524,0,0,0-1.146-1.942,2,2,0,0,0-2.434-.219,1.25,1.25,0,0,0-.266,1.99,1.727,1.727,0,0,1,.437,1.811,4.677,4.677,0,0,0-3.134,4.916,1.7,1.7,0,0,0,1.942,1.219,1.5,1.5,0,0,0,1.49-1.587,1.619,1.619,0,0,1,.1-.889,2.275,2.275,0,0,1,1.571-1.276,2.9,2.9,0,0,1,2.188.279,2.056,2.056,0,0,0,1.73.152,1.468,1.468,0,0,0,1.016-1.154,1.331,1.331,0,0,0-.723-1.295,6.6,6.6,0,0,0-2.63-.862A4.03,4.03,0,0,0,215.71,187.721Z" transform="translate(-209.117 -185.249)" fill="rgba(0,0,0,0)" stroke="rgba(0,0,0,0)" stroke-width="1"/>
        </g>
      </g>
      <g id="Group_26" data-name="Group 26" transform="translate(39.835 32.296)">
        <path id="Path_40" data-name="Path 40" d="M206.589,143.371a1.116,1.116,0,0,1,.443,1.152,1.085,1.085,0,0,1-.156.357,1.293,1.293,0,0,0,.68,1.924,1.944,1.944,0,0,0,2.35-.557,3.7,3.7,0,0,0,.521-1.163,3.469,3.469,0,0,0,.075-.454,6.122,6.122,0,0,0,.828-.18,5.2,5.2,0,0,0,1.869-.984,1.242,1.242,0,0,0-.026-2,2.01,2.01,0,0,0-2.445.021,1.7,1.7,0,0,1-1.186.369,5.6,5.6,0,0,0-5.237-1.53,1.615,1.615,0,0,0-1.241.991,1.242,1.242,0,0,0,.431,1.373,1.993,1.993,0,0,0,1.67.38A1.77,1.77,0,0,1,206.589,143.371Z" transform="translate(-202.997 -140.195)" fill="#fff"/>
        <g id="Group_25" data-name="Group 25">
          <path id="Path_41" data-name="Path 41" d="M206.589,143.371a1.116,1.116,0,0,1,.443,1.152,1.085,1.085,0,0,1-.156.357,1.293,1.293,0,0,0,.68,1.924,1.944,1.944,0,0,0,2.35-.557,3.7,3.7,0,0,0,.521-1.163,3.469,3.469,0,0,0,.075-.454,6.122,6.122,0,0,0,.828-.18,5.2,5.2,0,0,0,1.869-.984,1.242,1.242,0,0,0-.026-2,2.01,2.01,0,0,0-2.445.021,1.7,1.7,0,0,1-1.186.369,5.6,5.6,0,0,0-5.237-1.53,1.615,1.615,0,0,0-1.241.991,1.242,1.242,0,0,0,.431,1.373,1.993,1.993,0,0,0,1.67.38A1.77,1.77,0,0,1,206.589,143.371Z" transform="translate(-202.997 -140.195)" fill="rgba(0,0,0,0)" stroke="rgba(0,0,0,0)" stroke-width="1"/>
        </g>
      </g>
      <g id="Group_28" data-name="Group 28" transform="translate(36.599 54.721)">
        <path id="Path_42" data-name="Path 42" d="M196.677,242.768a8.123,8.123,0,0,0,1.936-.025,7.6,7.6,0,0,0,2.81-.933,1.263,1.263,0,0,0,.425-1.972,1.985,1.985,0,0,0-2.41-.346,3.967,3.967,0,0,1-3.192.281,5.627,5.627,0,0,0-1.481-1.818,2.006,2.006,0,0,0-2.445,0,1.242,1.242,0,0,0,0,2,2.708,2.708,0,0,1,.845,1.166c.006.021.012.041.02.064a2.373,2.373,0,0,1-.648,2.446,1.248,1.248,0,0,0,.234,1.993,2,2,0,0,0,2.433-.191A5.185,5.185,0,0,0,196.677,242.768Z" transform="translate(-191.814 -237.541)" fill="#fff"/>
        <g id="Group_27" data-name="Group 27">
          <path id="Path_43" data-name="Path 43" d="M196.677,242.768a8.123,8.123,0,0,0,1.936-.025,7.6,7.6,0,0,0,2.81-.933,1.263,1.263,0,0,0,.425-1.972,1.985,1.985,0,0,0-2.41-.346,3.967,3.967,0,0,1-3.192.281,5.627,5.627,0,0,0-1.481-1.818,2.006,2.006,0,0,0-2.445,0,1.242,1.242,0,0,0,0,2,2.708,2.708,0,0,1,.845,1.166c.006.021.012.041.02.064a2.373,2.373,0,0,1-.648,2.446,1.248,1.248,0,0,0,.234,1.993,2,2,0,0,0,2.433-.191A5.185,5.185,0,0,0,196.677,242.768Z" transform="translate(-191.814 -237.541)" fill="rgba(0,0,0,0)" stroke="rgba(0,0,0,0)" stroke-width="1"/>
        </g>
      </g>
    </g>
  </g>
</svg>
